# xmcd CD database file
#
# Track frame offsets:
#	182
#	25510
#	42170
#	59485
#	73775
#	99167
#	112742
#	129115
#	154152
#	171410
#
# Disc length: 2560 seconds
#
# Revision: 0
# Processed by: cddbd v1.5.2PL0 Copyright (c) Steve Scherf et al.
# Submitted via: CDex 1.51
#
DISCID=7609fe0a
DTITLE=Dankworth, John - The Million Dollar Collection
DYEAR=1967
DGENRE=Jazz
TTITLE0=Winter Scene
TTITLE1=Sailor
TTITLE2=Two-Piece Flower
TTITLE3=Little Girl in Blue
TTITLE4=Composition With Colour
TTITLE5=Face in a Crowd
TTITLE6=La Clownesse
TTITLE7=Garden of Delights
TTITLE8=Madonna
TTITLE9=Hogshead of Hogarth
EXTD=YEAR: 1967
EXTT0=
EXTT1=
EXTT2=
EXTT3=
EXTT4=
EXTT5=
EXTT6=
EXTT7=
EXTT8=
EXTT9=
PLAYORDER=
